<svg width="25" height="26" viewBox="0 0 25 26" fill="none" xmlns="http://www.w3.org/2000/svg">
<path d="M21.6225 15.3846V6.94707L15.06 2.35571L8.49749 6.94707V9.56732H6.62253V6.02162L15.06 0L23.4975 6.02162V15.3846H21.6225ZM15.7451 7.68026H16.8749V6.55046H15.7451V7.68026ZM13.2451 7.68026H14.3749V6.55046H13.2451V7.68026ZM15.7451 10.1803H16.8749V9.05046H15.7451V10.1803ZM13.2451 10.1803H14.3749V9.05046H13.2451V10.1803ZM6.24991 20.625L15.3221 23.1923L22.7836 20.8798C22.7195 20.5961 22.5873 20.3786 22.3869 20.2271C22.1865 20.0757 21.9598 20 21.7067 20H15.585C15.0395 20 14.5761 19.9791 14.1947 19.9375C13.8133 19.8958 13.4214 19.8044 13.0192 19.6634L10.1971 18.7307L10.7523 16.8942L13.2836 17.774C13.6618 17.9022 14.0985 17.9896 14.5937 18.0361C15.0889 18.0825 15.7932 18.1122 16.7067 18.125C16.7067 17.8157 16.637 17.5489 16.4975 17.3245C16.3581 17.1001 16.1746 16.9487 15.9471 16.8702L8.69465 14.2067C8.67061 14.1987 8.64858 14.1927 8.62854 14.1887C8.60851 14.1847 8.58647 14.1827 8.56243 14.1827H6.24991V20.625ZM0 24.2787V12.3077H8.54829C8.67951 12.3077 8.81243 12.3221 8.94704 12.351C9.08166 12.3798 9.20666 12.4135 9.32204 12.452L16.6057 15.1346C17.173 15.3446 17.6441 15.716 18.0191 16.2488C18.3941 16.7817 18.5816 17.4071 18.5816 18.125H21.7067C22.6041 18.125 23.3353 18.4147 23.9001 18.994C24.465 19.5733 24.7475 20.3253 24.7475 21.25V22.2596L15.3846 25.1682L6.24991 22.5624V24.2787H0ZM1.87495 22.4038H4.37495V14.1827H1.87495V22.4038Z" fill="#E1C1A2"/>
</svg>
